<?xml version="1.0" standalone="no"?>
<!-- Generator: Adobe Fireworks 10, Export SVG Extension by Aaron Beall (http://fireworks.abeall.com) . Version: 0.6.1  -->
<!DOCTYPE svg PUBLIC "-//W3C//DTD SVG 1.1//EN" "http://www.w3.org/Graphics/SVG/1.1/DTD/svg11.dtd">
<svg id="header_logo-P%E1gina%201" viewBox="0 0 380 60" style="background-color:#ffffff00" version="1.1"
	xmlns="http://www.w3.org/2000/svg" xmlns:xlink="http://www.w3.org/1999/xlink" xml:space="preserve"
	x="0px" y="0px" width="380px" height="60px"
>
	<defs>
		<filter id="filter1" x="-100%" y="-100%" width="300%" height="300%">
			<!-- Sombra -->
			<feOffset result="out" in="SourceGraphic" dx="2.1213" dy="2.1213"/>
			<feColorMatrix result="out" in="out" type="matrix" values="0 0 0 0 0  0 0 0 0 0  0 0 0 0 0  0 0 0 0.149 0"/>
			<feGaussianBlur result="out" in="out" stdDeviation="0"/>
			<feBlend in="SourceGraphic" in2="out" mode="normal" result="Sombra1"/>
		</filter>
	</defs>
	<g id="Capa%201">
		<g filter="url(#filter1)">
			<path d="M 1.8754 42.0436 L 16.3483 42.0436 C 19.0246 42.0436 21.2708 41.8637 23.4691 41.1892 C 30.0126 39.2106 33.8438 33.4275 33.8438 24.9996 C 33.8438 16.5224 29.8774 10.6097 23.4691 8.721 C 21.223 8.0915 19.1202 7.9564 16.3005 7.9564 L 1.8754 7.9564 L 1.8754 11.6483 L 6.0998 11.6483 L 6.0998 38.3277 L 1.8754 38.3277 L 1.8754 42.0436 L 1.8754 42.0436 ZM 10.9002 38.3561 L 10.9002 11.6439 L 16.0616 11.6439 C 18.2599 11.6439 19.9804 11.7417 21.8442 12.4317 C 26.3365 14.1074 29.1562 18.5925 29.1562 24.9996 C 29.1562 31.3575 26.3365 35.8425 21.7964 37.4689 C 20.076 38.159 18.2599 38.3561 16.0616 38.3561 L 10.9002 38.3561 L 10.9002 38.3561 Z" fill="#ffffff"/>
			<path d="M 38.1238 29.9473 C 38.1238 37.9086 43.9501 43.0436 51.0006 43.0436 C 58.0511 43.0436 63.8762 37.9086 63.8762 29.9473 C 63.8762 22.0377 58.0511 16.9564 51.0006 16.9564 C 43.9501 16.9564 38.1238 22.0377 38.1238 29.9473 L 38.1238 29.9473 ZM 42.8762 29.9473 C 42.8762 24.5191 46.5182 20.6439 51.0006 20.6439 C 55.4363 20.6439 59.1238 24.5191 59.1238 29.9473 C 59.1238 35.4271 55.4363 39.3561 51.0006 39.3561 C 46.5182 39.3561 42.8762 35.4271 42.8762 29.9473 L 42.8762 29.9473 Z" fill="#ffffff"/>
			<path d="M 70.1562 35.1677 C 70.1562 40.7232 73.1524 42.0436 76.6199 42.0436 C 77.724 42.0436 78.6841 41.9525 78.6841 41.9525 L 78.7321 38.3078 C 78.7321 38.3078 78.204 38.3561 77.436 38.3561 C 75.3238 38.3561 74.8438 36.9551 74.8438 34.8778 L 74.8438 7.9564 L 66.1239 7.9564 L 66.1239 11.6439 L 70.1562 11.6439 L 70.1562 35.1677 L 70.1562 35.1677 Z" fill="#ffffff"/>
			<path d="M 82.1238 29.9473 C 82.1238 37.9086 87.9501 43.0436 95.0006 43.0436 C 102.0511 43.0436 107.8762 37.9086 107.8762 29.9473 C 107.8762 22.0377 102.0511 16.9564 95.0006 16.9564 C 87.9501 16.9564 82.1238 22.0377 82.1238 29.9473 L 82.1238 29.9473 ZM 86.8762 29.9473 C 86.8762 24.5191 90.5182 20.6439 95.0006 20.6439 C 99.4363 20.6439 103.1238 24.5191 103.1238 29.9473 C 103.1238 35.4271 99.4363 39.3561 95.0006 39.3561 C 90.5182 39.3561 86.8762 35.4271 86.8762 29.9473 L 86.8762 29.9473 Z" fill="#ffffff"/>
			<path d="M 111.3639 48.3561 L 111.3639 52.0436 L 123.8306 52.0436 L 123.8306 48.3561 L 119.8438 48.3561 L 119.8438 41.1998 C 119.8438 40.0584 119.6987 39.2574 119.6987 39.2574 L 119.7954 39.2574 C 119.7954 39.2574 122.0863 43.0436 127.618 43.0436 C 134.1958 43.0436 138.8522 38.3695 138.8522 30.4271 C 138.8522 21.8362 134.7238 16.9564 127.9669 16.9564 C 121.588 16.9564 119.5054 21.1623 119.5054 21.1623 L 119.4088 21.1623 C 119.4088 22.0407 119.5054 21.3981 119.5054 20.6115 L 119.5054 20.4148 C 119.5054 18.9399 118.6839 17.9564 116.5093 17.9564 L 111.1239 17.9564 L 111.1239 21.6439 L 114.1001 21.6439 C 114.7722 21.6439 115.1562 21.9913 115.1562 22.7313 L 115.1562 48.3561 L 111.3639 48.3561 L 111.3639 48.3561 ZM 119.7471 30.5257 C 119.7471 23.3912 123.2325 20.6439 126.9702 20.6439 C 131.2062 20.6439 134.1478 24.3242 134.1478 30.026 C 134.1478 35.9869 130.8573 39.3561 126.8705 39.3561 C 122.186 39.3561 119.7471 34.9656 119.7471 30.5257 L 119.7471 30.5257 Z" fill="#ffffff"/>
			<path d="M 143.1238 29.5202 C 143.1238 37.6584 148.3605 43.0436 156.0611 43.0436 C 161.9159 43.0436 165.5642 39.9706 165.5642 39.9706 L 163.644 36.2346 C 163.644 36.2346 160.6137 39.3561 156.3517 39.3561 C 151.9929 39.3561 148.1668 36.0703 147.8762 29.9375 L 165.7562 29.9375 C 165.7562 29.9375 165.9002 28.8246 165.9002 28.2218 C 165.9002 22.0258 162.2999 16.952 155.3346 16.952 C 148.3605 16.952 143.1238 21.9308 143.1238 29.5202 L 143.1238 29.5202 ZM 148.0699 27.0625 C 148.748 23.0237 151.6539 20.6483 155.2378 20.6483 C 158.3374 20.6483 160.9527 22.8336 161.0998 27.0625 L 148.0699 27.0625 L 148.0699 27.0625 Z" fill="#ffffff"/>
			<path d="M 170.1238 29.5506 C 170.1238 38.1121 174.2041 43.0436 180.541 43.0436 C 186.5772 43.0436 188.4945 38.4749 188.4945 38.4749 L 188.5912 38.4749 C 188.5912 37.6635 188.4462 38.1582 188.4462 38.9954 L 188.4462 39.3396 C 188.4462 40.962 189.316 42.0436 191.4906 42.0436 L 196.3481 42.0436 L 196.3481 38.3561 L 193.8998 38.3561 C 193.2278 38.3561 192.8438 38.0098 192.8438 37.2678 L 192.8438 7.9564 L 184.2556 7.9564 L 184.2556 11.6439 L 188.1562 11.6439 L 188.1562 18.9955 C 188.1562 19.9498 188.3012 20.6439 188.3012 20.6439 L 188.2046 20.6439 C 188.2046 20.6439 186.2986 16.9564 180.9589 16.9564 C 174.6362 16.9564 170.1238 21.5861 170.1238 29.5506 L 170.1238 29.5506 ZM 174.8762 29.9741 C 174.8762 24.0132 177.8943 20.6439 181.6553 20.6439 C 186.1129 20.6439 188.3012 25.2054 188.3012 30.026 C 188.3012 36.5571 184.9985 39.3561 181.5161 39.3561 C 177.6157 39.3561 174.8762 35.6759 174.8762 29.9741 L 174.8762 29.9741 Z" fill="#ffffff"/>
			<path d="M 204.1562 12.7524 L 208.8438 12.7524 L 208.8438 8 L 204.1562 8 L 204.1562 12.7524 L 204.1562 12.7524 ZM 200.4599 42.0436 L 212.6841 42.0436 L 212.6841 38.3561 L 208.8438 38.3561 L 208.8438 17.9564 L 200.1239 17.9564 L 200.1239 21.6439 L 204.1562 21.6439 L 204.1562 38.3561 L 200.3639 38.3561 L 200.4599 42.0436 L 200.4599 42.0436 Z" fill="#ffffff"/>
			<path d="M 215.1478 35.1445 C 215.1478 40.6346 219.1801 43.0436 223.2926 43.0436 C 229.3379 43.0436 231.498 37.7267 231.498 37.7267 L 231.5957 37.7267 C 231.5957 37.3829 231.4004 38.0155 231.4004 38.9954 L 231.4004 39.3396 C 231.4004 40.962 232.2793 42.0436 234.4765 42.0436 L 239.3481 42.0436 L 239.3481 38.3561 L 236.8998 38.3561 C 236.2278 38.3561 235.8438 38.0155 235.8438 37.2856 L 235.8438 26.4632 C 235.8438 20.0963 232.5234 16.88 226.1924 16.88 C 220.3928 16.88 216.8279 19.7602 216.8279 19.7602 L 218.7001 23.167 C 218.7001 23.167 221.8673 20.7203 225.7992 20.7203 C 228.8464 20.7203 231.1072 22.1182 231.1072 26.1136 L 231.1072 27.0625 L 229.5345 27.0625 C 225.406 27.0625 215.1478 27.5643 215.1478 35.1445 L 215.1478 35.1445 ZM 219.8522 34.9771 C 219.8522 30.038 227.6668 29.9375 229.9277 29.9375 L 231.1562 29.9375 L 231.1562 31.0054 C 231.1562 34.8753 228.5515 39.3561 224.3247 39.3561 C 221.4741 39.3561 219.8522 37.2684 219.8522 34.9771 L 219.8522 34.9771 Z" fill="#ffffff"/>
		</g>
		<path d="M 284.4521 0.5002 L 285.2511 2.2751 L 287.2198 2.0653 L 286.0503 3.6305 L 287.2198 5.1957 L 285.2511 4.9859 L 284.4521 6.7608 L 283.653 4.9859 L 281.6844 5.1957 L 282.8538 3.6305 L 281.6844 2.0653 L 283.653 2.2751 L 284.4521 0.5002 Z" fill="#ffffff"/>
		<path d="M 298.3636 4.5217 L 299.1625 6.2965 L 301.1313 6.0867 L 299.9619 7.6519 L 301.1313 9.2171 L 299.1625 9.0073 L 298.3636 10.7822 L 297.5645 9.0073 L 295.5959 9.2171 L 296.7653 7.6519 L 295.5959 6.0867 L 297.5645 6.2965 L 298.3636 4.5217 Z" fill="#ffffff"/>
		<path d="M 270.301 4.1313 L 271.1 5.9061 L 273.0687 5.6963 L 271.8992 7.2616 L 273.0687 8.8267 L 271.1 8.6169 L 270.301 10.3918 L 269.5019 8.6169 L 267.5331 8.8267 L 268.7027 7.2616 L 267.5331 5.6963 L 269.5019 5.9061 L 270.301 4.1313 Z" fill="#ffffff"/>
		<path d="M 262.1693 14.1259 L 262.9683 15.9008 L 264.9369 15.691 L 263.7675 17.2562 L 264.9369 18.8214 L 262.9683 18.6116 L 262.1693 20.3865 L 261.3702 18.6116 L 259.4015 18.8214 L 260.571 17.2562 L 259.4015 15.691 L 261.3702 15.9008 L 262.1693 14.1259 Z" fill="#ffffff"/>
		<path d="M 259.0998 25.6433 L 259.8987 27.4181 L 261.8674 27.2083 L 260.6981 28.7735 L 261.8674 30.3386 L 259.8987 30.1289 L 259.0998 31.9037 L 258.3007 30.1289 L 256.332 30.3386 L 257.5015 28.7735 L 256.332 27.2083 L 258.3007 27.4181 L 259.0998 25.6433 Z" fill="#ffffff"/>
		<path d="M 262.3685 37.5902 L 263.1675 39.3649 L 265.1362 39.1552 L 263.9667 40.7203 L 265.1362 42.2855 L 263.1675 42.0757 L 262.3685 43.8505 L 261.5695 42.0757 L 259.6007 42.2855 L 260.7702 40.7203 L 259.6007 39.1552 L 261.5695 39.3649 L 262.3685 37.5902 Z" fill="#ffffff"/>
		<path d="M 271.5365 46.5306 L 272.3356 48.3057 L 274.3043 48.0958 L 273.1348 49.661 L 274.3043 51.2262 L 272.3356 51.0164 L 271.5365 52.7914 L 270.7375 51.0164 L 268.7687 51.2262 L 269.9382 49.661 L 268.7687 48.0958 L 270.7375 48.3057 L 271.5365 46.5306 Z" fill="#ffffff"/>
		<path d="M 284.7704 50.2398 L 285.5695 52.0145 L 287.5381 51.805 L 286.3687 53.3702 L 287.5381 54.9353 L 285.5695 54.7253 L 284.7704 56.5002 L 283.9714 54.7253 L 282.0027 54.9353 L 283.1722 53.3702 L 282.0027 51.805 L 283.9714 52.0145 L 284.7704 50.2398 Z" fill="#ffffff"/>
		<path d="M 297.9645 46.6089 L 298.7634 48.3836 L 300.7322 48.1741 L 299.5627 49.7392 L 300.7322 51.3044 L 298.7634 51.0944 L 297.9645 52.8693 L 297.1653 51.0944 L 295.1967 51.3044 L 296.3661 49.7392 L 295.1967 48.1741 L 297.1653 48.3836 L 297.9645 46.6089 Z" fill="#ffffff"/>
		<path d="M 306.6144 37.6291 L 307.4135 39.404 L 309.3821 39.1943 L 308.2127 40.7595 L 309.3821 42.3246 L 307.4135 42.1149 L 306.6144 43.8898 L 305.8153 42.1149 L 303.8466 42.3246 L 305.0162 40.7595 L 303.8466 39.1943 L 305.8153 39.404 L 306.6144 37.6291 Z" fill="#ffffff"/>
		<path d="M 309.5643 25.6824 L 310.3633 27.4572 L 312.332 27.2475 L 311.1625 28.8127 L 312.332 30.3778 L 310.3633 30.168 L 309.5643 31.943 L 308.7653 30.168 L 306.7966 30.3778 L 307.966 28.8127 L 306.7966 27.2475 L 308.7653 27.4572 L 309.5643 25.6824 Z" fill="#ffffff"/>
		<path d="M 307.6509 13.9309 L 308.45 15.7057 L 310.4186 15.4959 L 309.2491 17.0611 L 310.4186 18.6263 L 308.45 18.4165 L 307.6509 20.1913 L 306.8519 18.4165 L 304.8832 18.6263 L 306.0526 17.0611 L 304.8832 15.4959 L 306.8519 15.7057 L 307.6509 13.9309 Z" fill="#ffffff"/>
		<path opacity="0.651" d="M 275.4036 36.7772 L 275.4036 41.4278 L 282.22 45.7721 L 282.22 27.9145 L 278.3533 27.9145 L 278.3533 17.5684 L 280.4661 16.163 L 280.4661 17.9979 L 282.2598 17.9979 L 282.2598 12.7633 L 276.161 16.2095 L 276.161 29.7885 L 280.3466 29.7885 L 280.3466 41.8525 L 277.5562 40.2518 L 277.5562 36.7772 L 275.4036 36.7772 Z" fill="#ffffff"/>
		<path opacity="0.651" d="M 274.8057 38.2607 L 270.6999 35.5668 L 270.6999 29.7885 L 273.7294 29.7885 L 273.7294 27.8365 L 270.8195 27.8365 L 270.8195 21.824 L 275.3637 19.3254 L 275.3637 16.6601 L 268.2286 20.6918 L 268.2286 36.8552 L 274.8057 41.047 L 274.8057 38.2607 Z" fill="#ffffff"/>
		<path opacity="0.651" d="M 296.9288 20.6918 L 290.2321 16.8227 L 290.2321 39.51 L 285.4487 29.0858 L 289.0362 25.572 L 289.0362 16.1319 L 283.0969 12.7003 L 283.0969 45.4129 L 285.1696 44.0815 L 285.1696 34.3565 L 288.8375 41.7258 L 292.1454 39.6007 L 292.1454 29.8666 L 294.8162 29.8666 L 294.8162 37.8853 L 297.0883 36.4258 L 297.0883 22.761 L 304.941 22.761 L 304.941 20.6918 L 296.9288 20.6918 ZM 284.9704 26.3139 L 284.9704 16.3582 L 287.3221 17.6856 L 287.362 24.2837 L 284.9704 26.3139 ZM 294.8162 27.7974 L 292.1454 27.7974 L 292.1454 20.5356 L 294.8162 22.0193 L 294.8162 27.7974 Z" fill="#ffffff"/>
		<g opacity="0.651">
			<path d="M 331.5742 22.7105 C 330.174 21.3168 331.4261 18.8666 332.9626 18.3951 C 333.2938 18.0758 333.3508 17.5927 333.7854 17.2672 C 334.2893 16.8899 335.8331 16.7038 336.0995 17.3162 C 336.2665 17.7004 336.0417 18.4839 335.8939 19.1306 C 335.6891 20.0245 335.5862 20.802 335.1226 21.3864 C 334.6532 21.9776 333.5283 22.7003 333.1169 22.7596 C 332.6342 22.829 332.1064 22.6138 331.5742 22.7105 Z" fill="#ffffff"/>
			<path d="M 370.0397 32.7635 C 370.6609 33.1869 371.6132 33.0672 372.4567 33.0086 C 373.3326 32.9479 374.2476 32.9535 375.0793 32.8617 C 375.9783 32.7621 376.8517 32.2096 377.5991 32.6163 C 377.7975 33.0848 377.5162 33.4168 377.239 33.6952 C 376.5698 34.3676 376.2024 34.484 374.9764 34.7741 C 374.501 34.8866 374.1329 35.1776 373.7422 35.2646 C 373.2346 35.3775 372.6642 35.3705 372.0966 35.5096 C 370.2095 35.9725 366.8371 36.1445 366.9028 33.9895 C 366.9304 33.0812 368.1677 31.6557 368.6512 30.9981 C 370.0375 29.112 371.2842 27.5802 372.6108 25.4566 C 373.252 24.4303 374.5364 22.7138 373.7937 21.5826 C 373.4667 21.0847 371.6575 20.576 370.8112 20.5527 C 369.6994 20.5223 368.4554 21.0101 368.0342 21.7787 C 367.7396 22.316 367.966 22.955 367.2112 23.299 C 366.8158 22.9643 366.2188 22.3576 366.1313 21.6806 C 366.11 21.5143 366.2426 21.2981 366.2343 21.0922 C 366.2263 20.8936 366.0834 20.7211 366.0801 20.5527 C 366.0688 20.0069 366.363 19.1933 366.5942 18.9345 C 366.7446 18.7663 367.0347 18.6967 367.3142 18.5422 C 367.5479 18.413 367.7357 18.1859 367.9313 18.1009 C 368.9685 17.6498 371.1447 17.5007 372.6624 17.7576 C 374.2189 18.0211 375.7607 19.1181 376.0049 20.6018 C 376.3164 22.4934 375.4395 23.7745 374.7707 25.0643 C 374.2974 25.9773 373.7012 26.7585 373.1766 27.6144 C 372.6247 28.5146 372.1451 29.3829 371.5825 30.1644 C 370.988 30.9901 370.283 31.7662 370.0397 32.7635 Z" fill="#ffffff"/>
			<path d="M 360.3206 37.1279 C 359.97 36.7799 360.2211 36.295 360.3206 35.9019 C 360.9844 33.2745 360.8683 29.9424 361.4005 27.0749 C 360.86 25.7652 361.7321 23.7695 361.1948 22.6124 C 360.2257 23.0125 359.9073 24.0329 358.9835 24.4759 C 358.6736 25.1331 358.0925 25.6593 357.5948 26.1922 C 357.104 26.7183 356.6811 27.3515 356.1036 27.6635 C 355.3951 26.0616 356.8828 24.7231 357.6978 23.7894 C 358.1542 22.8523 358.9069 21.9027 359.652 20.9941 C 360.4471 20.0245 361.1609 18.812 362.0688 18.199 C 362.5467 17.8764 363.8099 18.4048 364.0229 18.8364 C 364.2768 19.35 364.076 20.5329 364.0229 21.2394 C 363.9556 22.1368 364.0606 23.016 364.0229 23.8384 C 363.9813 24.7526 363.5936 25.7989 363.6116 26.5356 C 363.617 26.7574 363.7488 26.9902 363.766 27.2221 C 363.8174 27.9245 363.5792 28.9045 363.4573 29.8702 C 363.3508 30.7159 363.1025 31.5331 362.943 32.3221 C 362.834 32.8627 362.8829 33.429 362.7888 33.8913 C 362.5532 35.0502 362.0527 35.7157 361.4517 36.4905 C 361.1606 36.8659 360.8208 37.3769 360.3206 37.1279 Z" fill="#ffffff"/>
			<path d="M 339.7507 32.0769 C 339.7546 32.5261 339.8871 32.9212 339.9564 33.352 C 340.0175 33.7323 340.202 34.2796 340.1106 34.6268 C 340.0313 34.9283 339.3255 35.3468 338.9792 35.6078 C 338.4734 35.9889 338.1744 36.2279 337.7965 36.4905 C 337.0535 37.0065 336.0062 37.8406 335.0711 37.9125 C 334.1711 37.9819 332.8629 37.4667 332.4998 37.0299 C 331.8334 36.2283 331.9401 34.7148 331.7798 33.6952 C 331.6093 32.6103 331.1876 31.6417 330.7514 30.8019 C 329.5015 31.0813 328.8571 32.1992 328.0771 32.7635 C 327.9039 31.9318 327.9265 30.913 327.6658 30.1644 C 328.8114 28.403 330.4733 27.5031 332.037 25.898 C 332.7493 25.167 333.2941 23.8285 334.6082 24.574 C 336.0325 25.382 335.4337 27.7615 335.431 30.0663 C 335.4301 30.7592 335.3914 33.245 335.8423 33.6463 C 336.1809 33.9472 336.894 33.8869 337.3337 33.7443 C 338.2853 33.4352 339.0997 32.2876 339.7507 32.0769 Z" fill="#ffffff"/>
			<path d="M 355.3323 29.8702 C 354.9175 29.9281 354.6447 30.1506 354.2524 30.2135 C 352.9601 30.4203 351.2994 29.7171 350.087 30.0663 C 348.4108 30.549 349.5355 33.6255 348.5955 34.8723 C 348.1731 34.9924 347.5594 34.9301 347.1042 35.0193 C 346.5005 33.2049 349.5422 30.1062 346.1273 30.4096 C 345.1536 30.4961 343.6998 31.1524 342.7847 31.0471 C 342.2711 30.988 341.8153 30.7097 341.8591 30.1154 C 341.8909 29.6847 342.3223 29.3393 342.7847 29.3307 C 343.3398 29.3205 343.3677 29.663 343.916 29.7231 C 345.6675 29.9153 347.7272 29.8552 348.2357 28.6933 C 348.4969 28.096 348.4939 27.2219 348.5443 26.8298 C 348.6127 26.2967 348.6094 25.3223 349.3156 25.2115 C 349.524 25.1788 350.0034 25.2693 350.1383 25.4566 C 350.818 26.3992 349.0465 27.8903 349.8299 28.8403 C 350.9039 30.1431 355.1864 27.6873 355.3323 29.8702 Z" fill="#ffffff"/>
		</g>
	</g>
</svg>